<mxfile host="afd1b6a7-f9d3-4791-86da-55be19f74b4e" modified="2020-08-25T22:52:51.767Z" agent="5.0 (Windows NT 10.0; Win64; x64) AppleWebKit/537.36 (KHTML, like Gecko) Code/1.48.2 Chrome/78.0.3904.130 Electron/7.3.2 Safari/537.36" etag="uaU9EIC3yC-5CT9Bu6o_" version="13.1.3">
    <diagram id="6hGFLwfOUW9BJ-s0fimq" name="Page-1">
        <mxGraphModel dx="882" dy="306" grid="1" gridSize="10" guides="1" tooltips="1" connect="1" arrows="1" fold="1" page="1" pageScale="1" pageWidth="827" pageHeight="1169" math="0" shadow="0">
            <root>
                <mxCell id="0"/>
                <mxCell id="1" parent="0"/>
                <mxCell id="69" style="edgeStyle=orthogonalEdgeStyle;rounded=0;orthogonalLoop=1;jettySize=auto;html=1;exitX=0.5;exitY=1;exitDx=0;exitDy=0;" parent="1" edge="1">
                    <mxGeometry relative="1" as="geometry"/>
                </mxCell>
                <mxCell id="117" value="" style="group" parent="1" vertex="1" connectable="0">
                    <mxGeometry x="30" y="20" width="177.42" height="220" as="geometry"/>
                </mxCell>
                <mxCell id="27" value="Users" style="shape=table;startSize=30;container=1;collapsible=1;childLayout=tableLayout;fixedRows=1;rowLines=0;fontStyle=1;align=center;resizeLast=1;fillColor=#0050ef;strokeColor=#001DBC;fontColor=#000000;verticalAlign=middle;" parent="117" vertex="1">
                    <mxGeometry width="177.42" height="28.38709677419355" as="geometry">
                        <mxRectangle x="110" y="150" width="70" height="30" as="alternateBounds"/>
                    </mxGeometry>
                </mxCell>
                <mxCell id="47" value="" style="group;fillColor=#647687;strokeColor=none;fontColor=#000000;verticalAlign=middle;" parent="117" vertex="1" connectable="0">
                    <mxGeometry y="28.38709677419355" width="177.42" height="21.290322580645164" as="geometry"/>
                </mxCell>
                <mxCell id="41" value="id" style="rounded=0;whiteSpace=wrap;html=1;fillColor=#647687;strokeColor=#314354;fontColor=#000000;verticalAlign=middle;" parent="47" vertex="1">
                    <mxGeometry width="177.42" height="21.290322580645164" as="geometry"/>
                </mxCell>
                <mxCell id="42" value="" style="line;strokeWidth=2;direction=south;html=1;fillColor=#647687;strokeColor=#314354;fontColor=#000000;verticalAlign=middle;" parent="47" vertex="1">
                    <mxGeometry x="25.548479999999998" width="7.0968" height="21.290322580645164" as="geometry"/>
                </mxCell>
                <mxCell id="52" value="PK" style="text;html=1;strokeColor=none;fillColor=#647687;align=center;verticalAlign=middle;whiteSpace=wrap;rounded=0;fontColor=#000000;" parent="47" vertex="1">
                    <mxGeometry y="3.548387096774194" width="28.3872" height="14.193548387096776" as="geometry"/>
                </mxCell>
                <mxCell id="48" value="" style="group;fillColor=#647687;strokeColor=#314354;fontColor=#000000;verticalAlign=middle;" parent="117" vertex="1" connectable="0">
                    <mxGeometry y="49.67741935483872" width="177.42" height="21.290322580645164" as="geometry"/>
                </mxCell>
                <mxCell id="49" style="edgeStyle=orthogonalEdgeStyle;rounded=0;orthogonalLoop=1;jettySize=auto;html=1;exitX=0.5;exitY=1;exitDx=0;exitDy=0;" parent="48" edge="1">
                    <mxGeometry relative="1" as="geometry"/>
                </mxCell>
                <mxCell id="50" value="first_name" style="rounded=0;whiteSpace=wrap;html=1;fillColor=#647687;strokeColor=#314354;fontColor=#000000;verticalAlign=middle;" parent="48" vertex="1">
                    <mxGeometry width="177.42" height="21.290322580645164" as="geometry"/>
                </mxCell>
                <mxCell id="57" value="" style="line;strokeWidth=2;direction=south;html=1;fillColor=#647687;strokeColor=#314354;fontColor=#000000;verticalAlign=middle;" parent="48" vertex="1">
                    <mxGeometry x="25.548479999999998" width="7.0968" height="21.290322580645164" as="geometry"/>
                </mxCell>
                <mxCell id="53" value="" style="group;fillColor=#647687;strokeColor=#314354;fontColor=#000000;verticalAlign=middle;" parent="117" vertex="1" connectable="0">
                    <mxGeometry y="70" width="177.42" height="22.26" as="geometry"/>
                </mxCell>
                <mxCell id="54" style="edgeStyle=orthogonalEdgeStyle;rounded=0;orthogonalLoop=1;jettySize=auto;html=1;exitX=0.5;exitY=1;exitDx=0;exitDy=0;" parent="53" edge="1">
                    <mxGeometry relative="1" as="geometry"/>
                </mxCell>
                <mxCell id="55" value="last_name" style="rounded=0;whiteSpace=wrap;html=1;fillColor=#647687;strokeColor=#314354;fontColor=#000000;verticalAlign=middle;" parent="53" vertex="1">
                    <mxGeometry width="177.42" height="22.26" as="geometry"/>
                </mxCell>
                <mxCell id="58" value="" style="line;strokeWidth=2;direction=south;html=1;fillColor=#647687;strokeColor=#314354;fontColor=#000000;verticalAlign=middle;" parent="53" vertex="1">
                    <mxGeometry x="25.548479999999998" width="7.0968" height="22.26" as="geometry"/>
                </mxCell>
                <mxCell id="59" value="" style="group;fillColor=#647687;strokeColor=#314354;fontColor=#000000;verticalAlign=middle;" parent="117" vertex="1" connectable="0">
                    <mxGeometry y="92.25806451612904" width="177.42" height="21.290322580645164" as="geometry"/>
                </mxCell>
                <mxCell id="60" style="edgeStyle=orthogonalEdgeStyle;rounded=0;orthogonalLoop=1;jettySize=auto;html=1;exitX=0.5;exitY=1;exitDx=0;exitDy=0;" parent="59" edge="1">
                    <mxGeometry relative="1" as="geometry"/>
                </mxCell>
                <mxCell id="61" value="email" style="rounded=0;whiteSpace=wrap;html=1;fillColor=#647687;strokeColor=#314354;fontColor=#000000;verticalAlign=middle;" parent="59" vertex="1">
                    <mxGeometry width="177.42" height="21.290322580645164" as="geometry"/>
                </mxCell>
                <mxCell id="62" value="" style="line;strokeWidth=2;direction=south;html=1;fillColor=#647687;strokeColor=#314354;fontColor=#000000;verticalAlign=middle;" parent="59" vertex="1">
                    <mxGeometry x="25.548479999999998" width="7.0968" height="21.290322580645164" as="geometry"/>
                </mxCell>
                <mxCell id="86" value="email" style="rounded=0;whiteSpace=wrap;html=1;fillColor=#647687;strokeColor=#314354;fontColor=#000000;verticalAlign=middle;" parent="59" vertex="1">
                    <mxGeometry width="177.42" height="21.290322580645164" as="geometry"/>
                </mxCell>
                <mxCell id="98" value="" style="line;strokeWidth=2;direction=south;html=1;fillColor=#647687;strokeColor=#314354;fontColor=#000000;verticalAlign=middle;" parent="59" vertex="1">
                    <mxGeometry x="25.548479999999998" width="7.0968" height="21.290322580645164" as="geometry"/>
                </mxCell>
                <mxCell id="64" value="" style="group;fillColor=#647687;strokeColor=#314354;fontColor=#000000;verticalAlign=middle;" parent="117" vertex="1" connectable="0">
                    <mxGeometry y="113.5483870967742" width="177.42" height="21.290322580645164" as="geometry"/>
                </mxCell>
                <mxCell id="65" style="edgeStyle=orthogonalEdgeStyle;rounded=0;orthogonalLoop=1;jettySize=auto;html=1;exitX=0.5;exitY=1;exitDx=0;exitDy=0;" parent="64" edge="1">
                    <mxGeometry relative="1" as="geometry"/>
                </mxCell>
                <mxCell id="66" value="password" style="rounded=0;whiteSpace=wrap;html=1;fillColor=#647687;strokeColor=#314354;fontColor=#000000;verticalAlign=middle;" parent="64" vertex="1">
                    <mxGeometry width="177.42" height="21.290322580645164" as="geometry"/>
                </mxCell>
                <mxCell id="67" value="" style="line;strokeWidth=2;direction=south;html=1;fillColor=#647687;strokeColor=#314354;fontColor=#000000;verticalAlign=middle;" parent="64" vertex="1">
                    <mxGeometry x="25.548479999999998" width="7.0968" height="21.290322580645164" as="geometry"/>
                </mxCell>
                <mxCell id="87" value="password" style="rounded=0;whiteSpace=wrap;html=1;fillColor=#647687;strokeColor=#314354;fontColor=#000000;verticalAlign=middle;" parent="64" vertex="1">
                    <mxGeometry width="177.42" height="21.290322580645164" as="geometry"/>
                </mxCell>
                <mxCell id="97" value="" style="line;strokeWidth=2;direction=south;html=1;fillColor=#647687;strokeColor=#314354;fontColor=#000000;verticalAlign=middle;" parent="64" vertex="1">
                    <mxGeometry x="25.548479999999998" width="7.0968" height="21.290322580645164" as="geometry"/>
                </mxCell>
                <mxCell id="72" value="" style="group;fillColor=#647687;strokeColor=#314354;fontColor=#000000;verticalAlign=middle;" parent="117" vertex="1" connectable="0">
                    <mxGeometry y="156.1290322580645" width="177.42" height="21.290322580645164" as="geometry"/>
                </mxCell>
                <mxCell id="73" style="edgeStyle=orthogonalEdgeStyle;rounded=0;orthogonalLoop=1;jettySize=auto;html=1;exitX=0.5;exitY=1;exitDx=0;exitDy=0;" parent="72" edge="1">
                    <mxGeometry relative="1" as="geometry"/>
                </mxCell>
                <mxCell id="74" value="city" style="rounded=0;whiteSpace=wrap;html=1;fillColor=#647687;strokeColor=#314354;fontColor=#000000;verticalAlign=middle;" parent="72" vertex="1">
                    <mxGeometry width="177.42" height="21.290322580645164" as="geometry"/>
                </mxCell>
                <mxCell id="75" value="" style="line;strokeWidth=2;direction=south;html=1;fillColor=#647687;strokeColor=#314354;fontColor=#000000;verticalAlign=middle;" parent="72" vertex="1">
                    <mxGeometry x="25.548479999999998" width="7.0968" height="21.290322580645164" as="geometry"/>
                </mxCell>
                <mxCell id="88" value="city" style="rounded=0;whiteSpace=wrap;html=1;fillColor=#647687;strokeColor=#314354;fontColor=#000000;verticalAlign=middle;" parent="72" vertex="1">
                    <mxGeometry width="177.42" height="21.290322580645164" as="geometry"/>
                </mxCell>
                <mxCell id="96" value="" style="line;strokeWidth=2;direction=south;html=1;fillColor=#647687;strokeColor=#314354;fontColor=#000000;verticalAlign=middle;" parent="72" vertex="1">
                    <mxGeometry x="25.548479999999998" width="7.0968" height="21.290322580645164" as="geometry"/>
                </mxCell>
                <mxCell id="76" value="" style="group;fillColor=#647687;strokeColor=#314354;fontColor=#000000;verticalAlign=middle;" parent="117" vertex="1" connectable="0">
                    <mxGeometry y="177.4193548387097" width="177.42" height="21.290322580645164" as="geometry"/>
                </mxCell>
                <mxCell id="77" style="edgeStyle=orthogonalEdgeStyle;rounded=0;orthogonalLoop=1;jettySize=auto;html=1;exitX=0.5;exitY=1;exitDx=0;exitDy=0;" parent="76" edge="1">
                    <mxGeometry relative="1" as="geometry"/>
                </mxCell>
                <mxCell id="78" value="avatar" style="rounded=0;whiteSpace=wrap;html=1;fillColor=#647687;strokeColor=#314354;fontColor=#000000;verticalAlign=middle;" parent="76" vertex="1">
                    <mxGeometry width="177.42" height="21.290322580645164" as="geometry"/>
                </mxCell>
                <mxCell id="79" value="" style="line;strokeWidth=2;direction=south;html=1;fillColor=#647687;strokeColor=#314354;fontColor=#000000;verticalAlign=middle;" parent="76" vertex="1">
                    <mxGeometry x="25.548479999999998" width="7.0968" height="21.290322580645164" as="geometry"/>
                </mxCell>
                <mxCell id="80" value="" style="group;fillColor=#647687;strokeColor=#314354;fontColor=#000000;verticalAlign=middle;" parent="117" vertex="1" connectable="0">
                    <mxGeometry y="198.70967741935485" width="177.42" height="21.290322580645164" as="geometry"/>
                </mxCell>
                <mxCell id="81" style="edgeStyle=orthogonalEdgeStyle;rounded=0;orthogonalLoop=1;jettySize=auto;html=1;exitX=0.5;exitY=1;exitDx=0;exitDy=0;" parent="80" edge="1">
                    <mxGeometry relative="1" as="geometry"/>
                </mxCell>
                <mxCell id="82" value="status" style="rounded=0;whiteSpace=wrap;html=1;fillColor=#647687;strokeColor=#314354;fontColor=#000000;verticalAlign=middle;" parent="80" vertex="1">
                    <mxGeometry width="177.42" height="21.290322580645164" as="geometry"/>
                </mxCell>
                <mxCell id="83" value="" style="line;strokeWidth=2;direction=south;html=1;fillColor=#647687;strokeColor=#314354;fontColor=#000000;verticalAlign=middle;" parent="80" vertex="1">
                    <mxGeometry x="25.548479999999998" width="7.0968" height="21.290322580645164" as="geometry"/>
                </mxCell>
                <mxCell id="70" value="address" style="rounded=0;whiteSpace=wrap;html=1;fillColor=#647687;strokeColor=#314354;fontColor=#000000;verticalAlign=middle;" parent="117" vertex="1">
                    <mxGeometry y="134.83870967741936" width="177.42" height="21.290322580645164" as="geometry"/>
                </mxCell>
                <mxCell id="71" value="" style="line;strokeWidth=2;direction=south;html=1;fillColor=#647687;strokeColor=#314354;fontColor=#000000;verticalAlign=middle;" parent="117" vertex="1">
                    <mxGeometry x="25.548479999999998" y="134.83870967741936" width="7.0968" height="21.290322580645164" as="geometry"/>
                </mxCell>
                <mxCell id="40" style="edgeStyle=orthogonalEdgeStyle;rounded=0;orthogonalLoop=1;jettySize=auto;html=1;exitX=0.5;exitY=1;exitDx=0;exitDy=0;fillColor=#647687;strokeColor=#314354;fontColor=#000000;verticalAlign=middle;" parent="117" source="27" target="27" edge="1">
                    <mxGeometry relative="1" as="geometry"/>
                </mxCell>
                <mxCell id="186" value="" style="group" parent="1" vertex="1" connectable="0">
                    <mxGeometry x="236" y="350" width="177.41999999999996" height="156.26" as="geometry"/>
                </mxCell>
                <mxCell id="126" value="" style="group;fillColor=#647687;strokeColor=none;fontColor=#000000;verticalAlign=middle;" parent="186" vertex="1" connectable="0">
                    <mxGeometry y="28.38709677419355" width="177.42" height="21.290322580645164" as="geometry"/>
                </mxCell>
                <mxCell id="127" value="id" style="rounded=0;whiteSpace=wrap;html=1;fillColor=#647687;strokeColor=#314354;fontColor=#000000;verticalAlign=middle;" parent="126" vertex="1">
                    <mxGeometry width="177.42" height="21.290322580645164" as="geometry"/>
                </mxCell>
                <mxCell id="128" value="" style="line;strokeWidth=2;direction=south;html=1;fillColor=#647687;strokeColor=#314354;fontColor=#000000;verticalAlign=middle;" parent="126" vertex="1">
                    <mxGeometry x="25.548479999999998" width="7.0968" height="21.290322580645164" as="geometry"/>
                </mxCell>
                <mxCell id="129" value="PK" style="text;html=1;strokeColor=none;fillColor=#647687;align=center;verticalAlign=middle;whiteSpace=wrap;rounded=0;fontColor=#000000;" parent="126" vertex="1">
                    <mxGeometry x="8.39" y="3.55" width="11.61" height="14.19" as="geometry"/>
                </mxCell>
                <mxCell id="130" value="" style="group;fillColor=#647687;strokeColor=#314354;fontColor=#000000;verticalAlign=middle;" parent="186" vertex="1" connectable="0">
                    <mxGeometry y="49.677419354838705" width="177.42" height="21.290322580645164" as="geometry"/>
                </mxCell>
                <mxCell id="131" style="edgeStyle=orthogonalEdgeStyle;rounded=0;orthogonalLoop=1;jettySize=auto;html=1;exitX=0.5;exitY=1;exitDx=0;exitDy=0;" parent="130" edge="1">
                    <mxGeometry relative="1" as="geometry"/>
                </mxCell>
                <mxCell id="132" value="products_id" style="rounded=0;whiteSpace=wrap;html=1;fillColor=#647687;strokeColor=#314354;fontColor=#000000;verticalAlign=middle;" parent="130" vertex="1">
                    <mxGeometry width="177.42" height="21.290322580645164" as="geometry"/>
                </mxCell>
                <mxCell id="133" value="" style="line;strokeWidth=2;direction=south;html=1;fillColor=#647687;strokeColor=#314354;fontColor=#000000;verticalAlign=middle;" parent="130" vertex="1">
                    <mxGeometry x="25.548479999999998" width="7.0968" height="21.290322580645164" as="geometry"/>
                </mxCell>
                <mxCell id="134" value="FK" style="text;html=1;strokeColor=none;fillColor=none;align=center;verticalAlign=middle;whiteSpace=wrap;rounded=0;fontColor=#000000;" parent="130" vertex="1">
                    <mxGeometry x="5" width="20" height="20" as="geometry"/>
                </mxCell>
                <mxCell id="135" value="" style="group;fillColor=#647687;strokeColor=#314354;fontColor=#000000;verticalAlign=middle;" parent="186" vertex="1" connectable="0">
                    <mxGeometry y="113.25999999999999" width="177.42" height="22.26" as="geometry"/>
                </mxCell>
                <mxCell id="136" style="edgeStyle=orthogonalEdgeStyle;rounded=0;orthogonalLoop=1;jettySize=auto;html=1;exitX=0.5;exitY=1;exitDx=0;exitDy=0;" parent="135" edge="1">
                    <mxGeometry relative="1" as="geometry"/>
                </mxCell>
                <mxCell id="137" value="quantity" style="rounded=0;whiteSpace=wrap;html=1;fillColor=#647687;strokeColor=#314354;fontColor=#000000;verticalAlign=middle;" parent="135" vertex="1">
                    <mxGeometry width="177.42" height="22.26" as="geometry"/>
                </mxCell>
                <mxCell id="138" value="" style="line;strokeWidth=2;direction=south;html=1;fillColor=#647687;strokeColor=#314354;fontColor=#000000;verticalAlign=middle;" parent="135" vertex="1">
                    <mxGeometry x="25.548479999999998" width="7.0968" height="22.26" as="geometry"/>
                </mxCell>
                <mxCell id="140" style="edgeStyle=orthogonalEdgeStyle;rounded=0;orthogonalLoop=1;jettySize=auto;html=1;exitX=0.5;exitY=1;exitDx=0;exitDy=0;fillColor=#647687;strokeColor=#314354;fontColor=#000000;verticalAlign=middle;" parent="186" source="141" target="141" edge="1">
                    <mxGeometry relative="1" as="geometry"/>
                </mxCell>
                <mxCell id="142" value="" style="group;fillColor=#647687;strokeColor=#314354;fontColor=#000000;verticalAlign=middle;" parent="186" vertex="1" connectable="0">
                    <mxGeometry y="91" width="177.42" height="22.26" as="geometry"/>
                </mxCell>
                <mxCell id="143" style="edgeStyle=orthogonalEdgeStyle;rounded=0;orthogonalLoop=1;jettySize=auto;html=1;exitX=0.5;exitY=1;exitDx=0;exitDy=0;" parent="142" edge="1">
                    <mxGeometry relative="1" as="geometry"/>
                </mxCell>
                <mxCell id="144" value="price" style="rounded=0;whiteSpace=wrap;html=1;fillColor=#647687;strokeColor=#314354;fontColor=#000000;verticalAlign=middle;" parent="142" vertex="1">
                    <mxGeometry width="177.42" height="22.26" as="geometry"/>
                </mxCell>
                <mxCell id="145" value="" style="line;strokeWidth=2;direction=south;html=1;fillColor=#647687;strokeColor=#314354;fontColor=#000000;verticalAlign=middle;" parent="142" vertex="1">
                    <mxGeometry x="25.548479999999998" width="7.0968" height="22.26" as="geometry"/>
                </mxCell>
                <mxCell id="148" value="" style="group;fillColor=#647687;strokeColor=#314354;fontColor=#000000;verticalAlign=middle;" parent="142" vertex="1" connectable="0">
                    <mxGeometry y="-21" width="177.42" height="22.26" as="geometry"/>
                </mxCell>
                <mxCell id="149" style="edgeStyle=orthogonalEdgeStyle;rounded=0;orthogonalLoop=1;jettySize=auto;html=1;exitX=0.5;exitY=1;exitDx=0;exitDy=0;" parent="148" edge="1">
                    <mxGeometry relative="1" as="geometry"/>
                </mxCell>
                <mxCell id="150" value="orders_id" style="rounded=0;whiteSpace=wrap;html=1;fillColor=#647687;strokeColor=#314354;fontColor=#000000;verticalAlign=middle;" parent="148" vertex="1">
                    <mxGeometry width="177.42" height="22.26" as="geometry"/>
                </mxCell>
                <mxCell id="151" value="" style="line;strokeWidth=2;direction=south;html=1;fillColor=#647687;strokeColor=#314354;fontColor=#000000;verticalAlign=middle;" parent="148" vertex="1">
                    <mxGeometry x="25.548479999999998" width="7.0968" height="22.26" as="geometry"/>
                </mxCell>
                <mxCell id="152" value="FK" style="text;html=1;strokeColor=none;fillColor=none;align=center;verticalAlign=middle;whiteSpace=wrap;rounded=0;fontColor=#000000;" parent="148" vertex="1">
                    <mxGeometry x="5.550000000000001" y="2.257419354838717" width="20" height="20" as="geometry"/>
                </mxCell>
                <mxCell id="141" value="Items" style="shape=table;startSize=30;container=1;collapsible=1;childLayout=tableLayout;fixedRows=1;rowLines=0;fontStyle=1;align=center;resizeLast=1;fillColor=#0050ef;strokeColor=#001DBC;fontColor=#000000;verticalAlign=middle;" parent="186" vertex="1">
                    <mxGeometry width="177.42" height="28.38709677419355" as="geometry">
                        <mxRectangle x="110" y="150" width="70" height="30" as="alternateBounds"/>
                    </mxGeometry>
                </mxCell>
                <mxCell id="153" value="" style="group;fillColor=#647687;strokeColor=#314354;fontColor=#000000;verticalAlign=middle;" parent="186" vertex="1" connectable="0">
                    <mxGeometry y="134" width="177.42" height="22.26" as="geometry"/>
                </mxCell>
                <mxCell id="154" style="edgeStyle=orthogonalEdgeStyle;rounded=0;orthogonalLoop=1;jettySize=auto;html=1;exitX=0.5;exitY=1;exitDx=0;exitDy=0;" parent="153" edge="1">
                    <mxGeometry relative="1" as="geometry"/>
                </mxCell>
                <mxCell id="155" value="name" style="rounded=0;whiteSpace=wrap;html=1;fillColor=#647687;strokeColor=#314354;fontColor=#000000;verticalAlign=middle;" parent="153" vertex="1">
                    <mxGeometry width="177.42" height="22.26" as="geometry"/>
                </mxCell>
                <mxCell id="156" value="" style="line;strokeWidth=2;direction=south;html=1;fillColor=#647687;strokeColor=#314354;fontColor=#000000;verticalAlign=middle;" parent="153" vertex="1">
                    <mxGeometry x="25.548479999999998" width="7.0968" height="22.26" as="geometry"/>
                </mxCell>
                <mxCell id="236" value="" style="group" parent="1" vertex="1" connectable="0">
                    <mxGeometry x="280" y="20" width="177.41999999999996" height="113.25999999999999" as="geometry"/>
                </mxCell>
                <mxCell id="193" value="" style="group;fillColor=#647687;strokeColor=none;fontColor=#000000;verticalAlign=middle;" parent="236" vertex="1" connectable="0">
                    <mxGeometry y="28.387096774193537" width="177.42" height="21.290322580645164" as="geometry"/>
                </mxCell>
                <mxCell id="194" value="id" style="rounded=0;whiteSpace=wrap;html=1;fillColor=#647687;strokeColor=#314354;fontColor=#000000;verticalAlign=middle;" parent="193" vertex="1">
                    <mxGeometry width="177.42" height="21.290322580645164" as="geometry"/>
                </mxCell>
                <mxCell id="195" value="" style="line;strokeWidth=2;direction=south;html=1;fillColor=#647687;strokeColor=#314354;fontColor=#000000;verticalAlign=middle;" parent="193" vertex="1">
                    <mxGeometry x="25.548479999999998" width="7.0968" height="21.290322580645164" as="geometry"/>
                </mxCell>
                <mxCell id="196" value="PK" style="text;html=1;strokeColor=none;fillColor=#647687;align=center;verticalAlign=middle;whiteSpace=wrap;rounded=0;fontColor=#000000;" parent="193" vertex="1">
                    <mxGeometry x="8.39" y="3.55" width="11.61" height="14.19" as="geometry"/>
                </mxCell>
                <mxCell id="197" value="" style="group;fillColor=#647687;strokeColor=#314354;fontColor=#000000;verticalAlign=middle;" parent="236" vertex="1" connectable="0">
                    <mxGeometry y="49.67741935483872" width="177.42" height="21.290322580645164" as="geometry"/>
                </mxCell>
                <mxCell id="198" style="edgeStyle=orthogonalEdgeStyle;rounded=0;orthogonalLoop=1;jettySize=auto;html=1;exitX=0.5;exitY=1;exitDx=0;exitDy=0;" parent="197" edge="1">
                    <mxGeometry relative="1" as="geometry"/>
                </mxCell>
                <mxCell id="199" value="products_id" style="rounded=0;whiteSpace=wrap;html=1;fillColor=#647687;strokeColor=#314354;fontColor=#000000;verticalAlign=middle;" parent="197" vertex="1">
                    <mxGeometry width="177.42" height="21.290322580645164" as="geometry"/>
                </mxCell>
                <mxCell id="200" value="" style="line;strokeWidth=2;direction=south;html=1;fillColor=#647687;strokeColor=#314354;fontColor=#000000;verticalAlign=middle;" parent="197" vertex="1">
                    <mxGeometry x="25.548479999999998" width="7.0968" height="21.290322580645164" as="geometry"/>
                </mxCell>
                <mxCell id="201" value="FK" style="text;html=1;strokeColor=none;fillColor=none;align=center;verticalAlign=middle;whiteSpace=wrap;rounded=0;fontColor=#000000;" parent="197" vertex="1">
                    <mxGeometry x="5" width="20" height="20" as="geometry"/>
                </mxCell>
                <mxCell id="202" value="" style="group;fillColor=#647687;strokeColor=#314354;fontColor=#000000;verticalAlign=middle;" parent="236" vertex="1" connectable="0">
                    <mxGeometry y="70" width="177.42" height="22.26" as="geometry"/>
                </mxCell>
                <mxCell id="203" style="edgeStyle=orthogonalEdgeStyle;rounded=0;orthogonalLoop=1;jettySize=auto;html=1;exitX=0.5;exitY=1;exitDx=0;exitDy=0;" parent="202" edge="1">
                    <mxGeometry relative="1" as="geometry"/>
                </mxCell>
                <mxCell id="204" value="users_id" style="rounded=0;whiteSpace=wrap;html=1;fillColor=#647687;strokeColor=#314354;fontColor=#000000;verticalAlign=middle;" parent="202" vertex="1">
                    <mxGeometry width="177.42" height="22.26" as="geometry"/>
                </mxCell>
                <mxCell id="205" value="" style="line;strokeWidth=2;direction=south;html=1;fillColor=#647687;strokeColor=#314354;fontColor=#000000;verticalAlign=middle;" parent="202" vertex="1">
                    <mxGeometry x="25.548479999999998" width="7.0968" height="22.26" as="geometry"/>
                </mxCell>
                <mxCell id="206" value="FK" style="text;html=1;strokeColor=none;fillColor=none;align=center;verticalAlign=middle;whiteSpace=wrap;rounded=0;fontColor=#000000;" parent="202" vertex="1">
                    <mxGeometry x="5.550000000000001" y="1.1274193548387181" width="20" height="20" as="geometry"/>
                </mxCell>
                <mxCell id="207" style="edgeStyle=orthogonalEdgeStyle;rounded=0;orthogonalLoop=1;jettySize=auto;html=1;exitX=0.5;exitY=1;exitDx=0;exitDy=0;fillColor=#647687;strokeColor=#314354;fontColor=#000000;verticalAlign=middle;" parent="236" source="208" target="208" edge="1">
                    <mxGeometry relative="1" as="geometry"/>
                </mxCell>
                <mxCell id="209" value="" style="group;fillColor=#647687;strokeColor=#314354;fontColor=#000000;verticalAlign=middle;" parent="236" vertex="1" connectable="0">
                    <mxGeometry y="91" width="177.42" height="22.26" as="geometry"/>
                </mxCell>
                <mxCell id="210" style="edgeStyle=orthogonalEdgeStyle;rounded=0;orthogonalLoop=1;jettySize=auto;html=1;exitX=0.5;exitY=1;exitDx=0;exitDy=0;" parent="209" edge="1">
                    <mxGeometry relative="1" as="geometry"/>
                </mxCell>
                <mxCell id="211" value="quantity" style="rounded=0;whiteSpace=wrap;html=1;fillColor=#647687;strokeColor=#314354;fontColor=#000000;verticalAlign=middle;" parent="209" vertex="1">
                    <mxGeometry width="177.42" height="22.26" as="geometry"/>
                </mxCell>
                <mxCell id="212" value="" style="line;strokeWidth=2;direction=south;html=1;fillColor=#647687;strokeColor=#314354;fontColor=#000000;verticalAlign=middle;" parent="209" vertex="1">
                    <mxGeometry x="25.548479999999998" width="7.0968" height="22.26" as="geometry"/>
                </mxCell>
                <mxCell id="208" value="user_product" style="shape=table;startSize=30;container=1;collapsible=1;childLayout=tableLayout;fixedRows=1;rowLines=0;fontStyle=1;align=center;resizeLast=1;fillColor=#0050ef;strokeColor=#001DBC;fontColor=#000000;verticalAlign=middle;" parent="236" vertex="1">
                    <mxGeometry width="177.42" height="28.38709677419355" as="geometry">
                        <mxRectangle x="110" y="150" width="70" height="30" as="alternateBounds"/>
                    </mxGeometry>
                </mxCell>
                <mxCell id="237" value="" style="group" parent="1" vertex="1" connectable="0">
                    <mxGeometry x="530" y="290" width="177.41999999999996" height="70.9677419354839" as="geometry"/>
                </mxCell>
                <mxCell id="214" value="" style="group;fillColor=#647687;strokeColor=none;fontColor=#000000;verticalAlign=middle;" parent="237" vertex="1" connectable="0">
                    <mxGeometry y="28.387096774193537" width="177.42" height="21.290322580645164" as="geometry"/>
                </mxCell>
                <mxCell id="215" value="id" style="rounded=0;whiteSpace=wrap;html=1;fillColor=#647687;strokeColor=#314354;fontColor=#000000;verticalAlign=middle;" parent="214" vertex="1">
                    <mxGeometry width="177.42" height="21.290322580645164" as="geometry"/>
                </mxCell>
                <mxCell id="216" value="" style="line;strokeWidth=2;direction=south;html=1;fillColor=#647687;strokeColor=#314354;fontColor=#000000;verticalAlign=middle;" parent="214" vertex="1">
                    <mxGeometry x="25.548479999999998" width="7.0968" height="21.290322580645164" as="geometry"/>
                </mxCell>
                <mxCell id="217" value="PK" style="text;html=1;strokeColor=none;fillColor=#647687;align=center;verticalAlign=middle;whiteSpace=wrap;rounded=0;fontColor=#000000;" parent="214" vertex="1">
                    <mxGeometry x="8.39" y="3.55" width="11.61" height="14.19" as="geometry"/>
                </mxCell>
                <mxCell id="218" value="" style="group;fillColor=#647687;strokeColor=#314354;fontColor=#000000;verticalAlign=middle;" parent="237" vertex="1" connectable="0">
                    <mxGeometry y="49.67741935483872" width="177.42" height="21.290322580645164" as="geometry"/>
                </mxCell>
                <mxCell id="219" style="edgeStyle=orthogonalEdgeStyle;rounded=0;orthogonalLoop=1;jettySize=auto;html=1;exitX=0.5;exitY=1;exitDx=0;exitDy=0;" parent="218" edge="1">
                    <mxGeometry relative="1" as="geometry"/>
                </mxCell>
                <mxCell id="220" value="title" style="rounded=0;whiteSpace=wrap;html=1;fillColor=#647687;strokeColor=#314354;fontColor=#000000;verticalAlign=middle;" parent="218" vertex="1">
                    <mxGeometry width="177.42" height="21.290322580645164" as="geometry"/>
                </mxCell>
                <mxCell id="221" value="" style="line;strokeWidth=2;direction=south;html=1;fillColor=#647687;strokeColor=#314354;fontColor=#000000;verticalAlign=middle;" parent="218" vertex="1">
                    <mxGeometry x="25.548479999999998" width="7.0968" height="21.290322580645164" as="geometry"/>
                </mxCell>
                <mxCell id="228" style="edgeStyle=orthogonalEdgeStyle;rounded=0;orthogonalLoop=1;jettySize=auto;html=1;exitX=0.5;exitY=1;exitDx=0;exitDy=0;fillColor=#647687;strokeColor=#314354;fontColor=#000000;verticalAlign=middle;" parent="237" source="229" target="229" edge="1">
                    <mxGeometry relative="1" as="geometry"/>
                </mxCell>
                <mxCell id="229" value="Categorys" style="shape=table;startSize=30;container=1;collapsible=1;childLayout=tableLayout;fixedRows=1;rowLines=0;fontStyle=1;align=center;resizeLast=1;fillColor=#0050ef;strokeColor=#001DBC;fontColor=#000000;verticalAlign=middle;" parent="237" vertex="1">
                    <mxGeometry width="177.42" height="28.38709677419355" as="geometry">
                        <mxRectangle x="110" y="150" width="70" height="30" as="alternateBounds"/>
                    </mxGeometry>
                </mxCell>
                <mxCell id="183" style="edgeStyle=orthogonalEdgeStyle;rounded=0;orthogonalLoop=1;jettySize=auto;html=1;exitX=0.5;exitY=1;exitDx=0;exitDy=0;" parent="1" edge="1">
                    <mxGeometry relative="1" as="geometry"/>
                </mxCell>
                <mxCell id="310" style="edgeStyle=orthogonalEdgeStyle;rounded=0;orthogonalLoop=1;jettySize=auto;html=1;exitX=0.5;exitY=1;exitDx=0;exitDy=0;" parent="1" edge="1">
                    <mxGeometry relative="1" as="geometry"/>
                </mxCell>
                <mxCell id="326" style="edgeStyle=orthogonalEdgeStyle;rounded=0;orthogonalLoop=1;jettySize=auto;html=1;exitX=0.5;exitY=1;exitDx=0;exitDy=0;" parent="1" edge="1">
                    <mxGeometry relative="1" as="geometry"/>
                </mxCell>
                <mxCell id="338" value="" style="group" parent="1" vertex="1" connectable="0">
                    <mxGeometry x="20" y="450" width="177.42" height="92.25999999999999" as="geometry"/>
                </mxCell>
                <mxCell id="316" value="" style="group;fillColor=#647687;strokeColor=none;fontColor=#000000;verticalAlign=middle;" parent="338" vertex="1" connectable="0">
                    <mxGeometry y="28.387096774193537" width="177.42" height="21.290322580645164" as="geometry"/>
                </mxCell>
                <mxCell id="317" value="id" style="rounded=0;whiteSpace=wrap;html=1;fillColor=#647687;strokeColor=#314354;fontColor=#000000;verticalAlign=middle;" parent="316" vertex="1">
                    <mxGeometry width="177.42" height="21.290322580645164" as="geometry"/>
                </mxCell>
                <mxCell id="318" value="" style="line;strokeWidth=2;direction=south;html=1;fillColor=#647687;strokeColor=#314354;fontColor=#000000;verticalAlign=middle;" parent="316" vertex="1">
                    <mxGeometry x="25.548479999999998" width="7.0968" height="21.290322580645164" as="geometry"/>
                </mxCell>
                <mxCell id="319" value="PK" style="text;html=1;strokeColor=none;fillColor=#647687;align=center;verticalAlign=middle;whiteSpace=wrap;rounded=0;fontColor=#000000;" parent="316" vertex="1">
                    <mxGeometry x="8.39" y="3.55" width="11.61" height="14.19" as="geometry"/>
                </mxCell>
                <mxCell id="320" value="" style="group;fillColor=#647687;strokeColor=#314354;fontColor=#000000;verticalAlign=middle;" parent="338" vertex="1" connectable="0">
                    <mxGeometry y="49.67741935483872" width="177.42" height="21.290322580645164" as="geometry"/>
                </mxCell>
                <mxCell id="321" style="edgeStyle=orthogonalEdgeStyle;rounded=0;orthogonalLoop=1;jettySize=auto;html=1;exitX=0.5;exitY=1;exitDx=0;exitDy=0;" parent="320" edge="1">
                    <mxGeometry relative="1" as="geometry"/>
                </mxCell>
                <mxCell id="322" value="users_id" style="rounded=0;whiteSpace=wrap;html=1;fillColor=#647687;strokeColor=#314354;fontColor=#000000;verticalAlign=middle;" parent="320" vertex="1">
                    <mxGeometry width="177.42" height="21.290322580645164" as="geometry"/>
                </mxCell>
                <mxCell id="323" value="" style="line;strokeWidth=2;direction=south;html=1;fillColor=#647687;strokeColor=#314354;fontColor=#000000;verticalAlign=middle;" parent="320" vertex="1">
                    <mxGeometry x="25.548479999999998" width="7.0968" height="21.290322580645164" as="geometry"/>
                </mxCell>
                <mxCell id="324" value="FK" style="text;html=1;strokeColor=none;fillColor=none;align=center;verticalAlign=middle;whiteSpace=wrap;rounded=0;fontColor=#000000;" parent="320" vertex="1">
                    <mxGeometry x="5" width="20" height="20" as="geometry"/>
                </mxCell>
                <mxCell id="325" value="" style="group;fillColor=#647687;strokeColor=#314354;fontColor=#000000;verticalAlign=middle;" parent="338" vertex="1" connectable="0">
                    <mxGeometry y="70" width="177.42" height="22.26" as="geometry"/>
                </mxCell>
                <mxCell id="330" style="edgeStyle=orthogonalEdgeStyle;rounded=0;orthogonalLoop=1;jettySize=auto;html=1;exitX=0.5;exitY=1;exitDx=0;exitDy=0;fillColor=#647687;strokeColor=#314354;fontColor=#000000;verticalAlign=middle;" parent="338" source="331" target="331" edge="1">
                    <mxGeometry relative="1" as="geometry"/>
                </mxCell>
                <mxCell id="331" value="Messages" style="shape=table;startSize=30;container=1;collapsible=1;childLayout=tableLayout;fixedRows=1;rowLines=0;fontStyle=1;align=center;resizeLast=1;fillColor=#0050ef;strokeColor=#001DBC;fontColor=#000000;verticalAlign=middle;" parent="338" vertex="1">
                    <mxGeometry width="177.42" height="28.38709677419355" as="geometry">
                        <mxRectangle x="110" y="150" width="70" height="30" as="alternateBounds"/>
                    </mxGeometry>
                </mxCell>
                <mxCell id="327" value="content" style="rounded=0;whiteSpace=wrap;html=1;fillColor=#647687;strokeColor=#314354;fontColor=#000000;verticalAlign=middle;" parent="338" vertex="1">
                    <mxGeometry y="70" width="177.42" height="22.26" as="geometry"/>
                </mxCell>
                <mxCell id="328" value="" style="line;strokeWidth=2;direction=south;html=1;fillColor=#647687;strokeColor=#314354;fontColor=#000000;verticalAlign=middle;" parent="338" vertex="1">
                    <mxGeometry x="25.548479999999998" y="70" width="7.0968" height="22.26" as="geometry"/>
                </mxCell>
                <mxCell id="346" value="" style="group" parent="1" vertex="1" connectable="0">
                    <mxGeometry x="280" y="160" width="177.41999999999996" height="156.51999999999998" as="geometry"/>
                </mxCell>
                <mxCell id="257" value="" style="group;fillColor=#647687;strokeColor=none;fontColor=#000000;verticalAlign=middle;" parent="346" vertex="1" connectable="0">
                    <mxGeometry y="28.387096774193537" width="177.42" height="21.290322580645164" as="geometry"/>
                </mxCell>
                <mxCell id="258" value="id" style="rounded=0;whiteSpace=wrap;html=1;fillColor=#647687;strokeColor=#314354;fontColor=#000000;verticalAlign=middle;" parent="257" vertex="1">
                    <mxGeometry width="177.42" height="21.290322580645164" as="geometry"/>
                </mxCell>
                <mxCell id="259" value="" style="line;strokeWidth=2;direction=south;html=1;fillColor=#647687;strokeColor=#314354;fontColor=#000000;verticalAlign=middle;" parent="257" vertex="1">
                    <mxGeometry x="25.548479999999998" width="7.0968" height="21.290322580645164" as="geometry"/>
                </mxCell>
                <mxCell id="260" value="PK" style="text;html=1;strokeColor=none;fillColor=#647687;align=center;verticalAlign=middle;whiteSpace=wrap;rounded=0;fontColor=#000000;" parent="257" vertex="1">
                    <mxGeometry x="8.39" y="3.55" width="11.61" height="14.19" as="geometry"/>
                </mxCell>
                <mxCell id="261" value="" style="group;fillColor=#647687;strokeColor=#314354;fontColor=#000000;verticalAlign=middle;" parent="346" vertex="1" connectable="0">
                    <mxGeometry y="71.2874193548387" width="177.42" height="21.290322580645164" as="geometry"/>
                </mxCell>
                <mxCell id="262" style="edgeStyle=orthogonalEdgeStyle;rounded=0;orthogonalLoop=1;jettySize=auto;html=1;exitX=0.5;exitY=1;exitDx=0;exitDy=0;" parent="261" edge="1">
                    <mxGeometry relative="1" as="geometry"/>
                </mxCell>
                <mxCell id="263" value="contact_name" style="rounded=0;whiteSpace=wrap;html=1;fillColor=#647687;strokeColor=#314354;fontColor=#000000;verticalAlign=middle;" parent="261" vertex="1">
                    <mxGeometry width="177.42" height="21.290322580645164" as="geometry"/>
                </mxCell>
                <mxCell id="264" value="" style="line;strokeWidth=2;direction=south;html=1;fillColor=#647687;strokeColor=#314354;fontColor=#000000;verticalAlign=middle;" parent="261" vertex="1">
                    <mxGeometry x="25.548479999999998" width="7.0968" height="21.290322580645164" as="geometry"/>
                </mxCell>
                <mxCell id="266" value="" style="group;fillColor=#647687;strokeColor=#314354;fontColor=#000000;verticalAlign=middle;" parent="346" vertex="1" connectable="0">
                    <mxGeometry y="134.26" width="177.42" height="22.26" as="geometry"/>
                </mxCell>
                <mxCell id="267" style="edgeStyle=orthogonalEdgeStyle;rounded=0;orthogonalLoop=1;jettySize=auto;html=1;exitX=0.5;exitY=1;exitDx=0;exitDy=0;" parent="266" edge="1">
                    <mxGeometry relative="1" as="geometry"/>
                </mxCell>
                <mxCell id="268" value="address" style="rounded=0;whiteSpace=wrap;html=1;fillColor=#647687;strokeColor=#314354;fontColor=#000000;verticalAlign=middle;" parent="266" vertex="1">
                    <mxGeometry width="177.42" height="22.26" as="geometry"/>
                </mxCell>
                <mxCell id="269" value="" style="line;strokeWidth=2;direction=south;html=1;fillColor=#647687;strokeColor=#314354;fontColor=#000000;verticalAlign=middle;" parent="266" vertex="1">
                    <mxGeometry x="25.548479999999998" width="7.0968" height="22.26" as="geometry"/>
                </mxCell>
                <mxCell id="271" style="edgeStyle=orthogonalEdgeStyle;rounded=0;orthogonalLoop=1;jettySize=auto;html=1;exitX=0.5;exitY=1;exitDx=0;exitDy=0;fillColor=#647687;strokeColor=#314354;fontColor=#000000;verticalAlign=middle;" parent="346" source="272" target="272" edge="1">
                    <mxGeometry relative="1" as="geometry"/>
                </mxCell>
                <mxCell id="272" value="Suppliers" style="shape=table;startSize=30;container=1;collapsible=1;childLayout=tableLayout;fixedRows=1;rowLines=0;fontStyle=1;align=center;resizeLast=1;fillColor=#0050ef;strokeColor=#001DBC;fontColor=#000000;verticalAlign=middle;" parent="346" vertex="1">
                    <mxGeometry width="177.42" height="28.38709677419355" as="geometry">
                        <mxRectangle x="110" y="150" width="70" height="30" as="alternateBounds"/>
                    </mxGeometry>
                </mxCell>
                <mxCell id="273" value="" style="group;fillColor=#647687;strokeColor=#314354;fontColor=#000000;verticalAlign=middle;" parent="346" vertex="1" connectable="0">
                    <mxGeometry y="91" width="177.42" height="22.26" as="geometry"/>
                </mxCell>
                <mxCell id="274" style="edgeStyle=orthogonalEdgeStyle;rounded=0;orthogonalLoop=1;jettySize=auto;html=1;exitX=0.5;exitY=1;exitDx=0;exitDy=0;" parent="273" edge="1">
                    <mxGeometry relative="1" as="geometry"/>
                </mxCell>
                <mxCell id="275" value="email" style="rounded=0;whiteSpace=wrap;html=1;fillColor=#647687;strokeColor=#314354;fontColor=#000000;verticalAlign=middle;" parent="273" vertex="1">
                    <mxGeometry width="177.42" height="22.26" as="geometry"/>
                </mxCell>
                <mxCell id="276" value="" style="line;strokeWidth=2;direction=south;html=1;fillColor=#647687;strokeColor=#314354;fontColor=#000000;verticalAlign=middle;" parent="273" vertex="1">
                    <mxGeometry x="25.548479999999998" width="7.0968" height="22.26" as="geometry"/>
                </mxCell>
                <mxCell id="297" value="" style="group;fillColor=#647687;strokeColor=#314354;fontColor=#000000;verticalAlign=middle;" parent="346" vertex="1" connectable="0">
                    <mxGeometry y="113" width="177.42" height="22.26" as="geometry"/>
                </mxCell>
                <mxCell id="298" style="edgeStyle=orthogonalEdgeStyle;rounded=0;orthogonalLoop=1;jettySize=auto;html=1;exitX=0.5;exitY=1;exitDx=0;exitDy=0;" parent="297" edge="1">
                    <mxGeometry relative="1" as="geometry"/>
                </mxCell>
                <mxCell id="299" value="phone" style="rounded=0;whiteSpace=wrap;html=1;fillColor=#647687;strokeColor=#314354;fontColor=#000000;verticalAlign=middle;" parent="297" vertex="1">
                    <mxGeometry width="177.42" height="22.26" as="geometry"/>
                </mxCell>
                <mxCell id="300" value="" style="line;strokeWidth=2;direction=south;html=1;fillColor=#647687;strokeColor=#314354;fontColor=#000000;verticalAlign=middle;" parent="297" vertex="1">
                    <mxGeometry x="25.548479999999998" width="7.0968" height="22.26" as="geometry"/>
                </mxCell>
                <mxCell id="305" value="" style="group;fillColor=#647687;strokeColor=#314354;fontColor=#000000;verticalAlign=middle;" parent="346" vertex="1" connectable="0">
                    <mxGeometry y="49.99741935483871" width="177.42" height="21.290322580645164" as="geometry"/>
                </mxCell>
                <mxCell id="306" style="edgeStyle=orthogonalEdgeStyle;rounded=0;orthogonalLoop=1;jettySize=auto;html=1;exitX=0.5;exitY=1;exitDx=0;exitDy=0;" parent="305" edge="1">
                    <mxGeometry relative="1" as="geometry"/>
                </mxCell>
                <mxCell id="307" value="company" style="rounded=0;whiteSpace=wrap;html=1;fillColor=#647687;strokeColor=#314354;fontColor=#000000;verticalAlign=middle;" parent="305" vertex="1">
                    <mxGeometry width="177.42" height="21.290322580645164" as="geometry"/>
                </mxCell>
                <mxCell id="308" value="" style="line;strokeWidth=2;direction=south;html=1;fillColor=#647687;strokeColor=#314354;fontColor=#000000;verticalAlign=middle;" parent="305" vertex="1">
                    <mxGeometry x="25.548479999999998" width="7.0968" height="21.290322580645164" as="geometry"/>
                </mxCell>
                <mxCell id="352" value="" style="group" parent="1" vertex="1" connectable="0">
                    <mxGeometry x="30" y="300" width="177.42" height="135.26" as="geometry"/>
                </mxCell>
                <mxCell id="104" value="" style="group;fillColor=#647687;strokeColor=none;fontColor=#000000;verticalAlign=middle;" parent="352" vertex="1" connectable="0">
                    <mxGeometry y="28.387096774193537" width="177.42" height="21.290322580645164" as="geometry"/>
                </mxCell>
                <mxCell id="105" value="id" style="rounded=0;whiteSpace=wrap;html=1;fillColor=#647687;strokeColor=#314354;fontColor=#000000;verticalAlign=middle;" parent="104" vertex="1">
                    <mxGeometry width="177.42" height="21.290322580645164" as="geometry"/>
                </mxCell>
                <mxCell id="106" value="" style="line;strokeWidth=2;direction=south;html=1;fillColor=#647687;strokeColor=#314354;fontColor=#000000;verticalAlign=middle;" parent="104" vertex="1">
                    <mxGeometry x="25.548479999999998" width="7.0968" height="21.290322580645164" as="geometry"/>
                </mxCell>
                <mxCell id="107" value="PK" style="text;html=1;strokeColor=none;fillColor=#647687;align=center;verticalAlign=middle;whiteSpace=wrap;rounded=0;fontColor=#000000;" parent="104" vertex="1">
                    <mxGeometry x="8.39" y="3.55" width="11.61" height="14.19" as="geometry"/>
                </mxCell>
                <mxCell id="108" value="" style="group;fillColor=#647687;strokeColor=#314354;fontColor=#000000;verticalAlign=middle;" parent="352" vertex="1" connectable="0">
                    <mxGeometry y="49.67741935483872" width="177.42" height="21.290322580645164" as="geometry"/>
                </mxCell>
                <mxCell id="109" style="edgeStyle=orthogonalEdgeStyle;rounded=0;orthogonalLoop=1;jettySize=auto;html=1;exitX=0.5;exitY=1;exitDx=0;exitDy=0;" parent="108" edge="1">
                    <mxGeometry relative="1" as="geometry"/>
                </mxCell>
                <mxCell id="110" value="items_id" style="rounded=0;whiteSpace=wrap;html=1;fillColor=#647687;strokeColor=#314354;fontColor=#000000;verticalAlign=middle;" parent="108" vertex="1">
                    <mxGeometry width="177.42" height="21.290322580645164" as="geometry"/>
                </mxCell>
                <mxCell id="111" value="" style="line;strokeWidth=2;direction=south;html=1;fillColor=#647687;strokeColor=#314354;fontColor=#000000;verticalAlign=middle;" parent="108" vertex="1">
                    <mxGeometry x="25.548479999999998" width="7.0968" height="21.290322580645164" as="geometry"/>
                </mxCell>
                <mxCell id="122" value="FK" style="text;html=1;strokeColor=none;fillColor=none;align=center;verticalAlign=middle;whiteSpace=wrap;rounded=0;fontColor=#000000;" parent="108" vertex="1">
                    <mxGeometry x="5" width="20" height="20" as="geometry"/>
                </mxCell>
                <mxCell id="112" value="" style="group;fillColor=#647687;strokeColor=#314354;fontColor=#000000;verticalAlign=middle;" parent="352" vertex="1" connectable="0">
                    <mxGeometry y="70" width="177.42" height="22.26" as="geometry"/>
                </mxCell>
                <mxCell id="113" style="edgeStyle=orthogonalEdgeStyle;rounded=0;orthogonalLoop=1;jettySize=auto;html=1;exitX=0.5;exitY=1;exitDx=0;exitDy=0;" parent="112" edge="1">
                    <mxGeometry relative="1" as="geometry"/>
                </mxCell>
                <mxCell id="114" value="users_id" style="rounded=0;whiteSpace=wrap;html=1;fillColor=#647687;strokeColor=#314354;fontColor=#000000;verticalAlign=middle;" parent="112" vertex="1">
                    <mxGeometry width="177.42" height="22.26" as="geometry"/>
                </mxCell>
                <mxCell id="115" value="" style="line;strokeWidth=2;direction=south;html=1;fillColor=#647687;strokeColor=#314354;fontColor=#000000;verticalAlign=middle;" parent="112" vertex="1">
                    <mxGeometry x="25.548479999999998" width="7.0968" height="22.26" as="geometry"/>
                </mxCell>
                <mxCell id="123" value="FK" style="text;html=1;strokeColor=none;fillColor=none;align=center;verticalAlign=middle;whiteSpace=wrap;rounded=0;fontColor=#000000;" parent="112" vertex="1">
                    <mxGeometry x="5.550000000000001" y="1.1274193548387181" width="20" height="20" as="geometry"/>
                </mxCell>
                <mxCell id="116" style="edgeStyle=orthogonalEdgeStyle;rounded=0;orthogonalLoop=1;jettySize=auto;html=1;exitX=0.5;exitY=1;exitDx=0;exitDy=0;fillColor=#647687;strokeColor=#314354;fontColor=#000000;verticalAlign=middle;" parent="352" source="103" target="103" edge="1">
                    <mxGeometry relative="1" as="geometry"/>
                </mxCell>
                <mxCell id="103" value="Orders" style="shape=table;startSize=30;container=1;collapsible=1;childLayout=tableLayout;fixedRows=1;rowLines=0;fontStyle=1;align=center;resizeLast=1;fillColor=#0050ef;strokeColor=#001DBC;fontColor=#000000;verticalAlign=middle;" parent="352" vertex="1">
                    <mxGeometry width="177.42" height="28.38709677419355" as="geometry">
                        <mxRectangle x="110" y="150" width="70" height="30" as="alternateBounds"/>
                    </mxGeometry>
                </mxCell>
                <mxCell id="118" value="" style="group;fillColor=#647687;strokeColor=#314354;fontColor=#000000;verticalAlign=middle;" parent="352" vertex="1" connectable="0">
                    <mxGeometry y="91" width="177.42" height="22.26" as="geometry"/>
                </mxCell>
                <mxCell id="119" style="edgeStyle=orthogonalEdgeStyle;rounded=0;orthogonalLoop=1;jettySize=auto;html=1;exitX=0.5;exitY=1;exitDx=0;exitDy=0;" parent="118" edge="1">
                    <mxGeometry relative="1" as="geometry"/>
                </mxCell>
                <mxCell id="120" value="number" style="rounded=0;whiteSpace=wrap;html=1;fillColor=#647687;strokeColor=#314354;fontColor=#000000;verticalAlign=middle;" parent="118" vertex="1">
                    <mxGeometry width="177.42" height="22.26" as="geometry"/>
                </mxCell>
                <mxCell id="121" value="" style="line;strokeWidth=2;direction=south;html=1;fillColor=#647687;strokeColor=#314354;fontColor=#000000;verticalAlign=middle;" parent="118" vertex="1">
                    <mxGeometry x="25.548479999999998" width="7.0968" height="22.26" as="geometry"/>
                </mxCell>
                <mxCell id="124" value="FK" style="text;html=1;strokeColor=none;fillColor=none;align=center;verticalAlign=middle;whiteSpace=wrap;rounded=0;fontColor=#000000;" parent="118" vertex="1">
                    <mxGeometry x="5.550000000000001" y="2.257419354838717" width="20" height="20" as="geometry"/>
                </mxCell>
                <mxCell id="347" value="" style="group;fillColor=#647687;strokeColor=#314354;fontColor=#000000;verticalAlign=middle;" parent="352" vertex="1" connectable="0">
                    <mxGeometry y="113" width="177.42" height="22.26" as="geometry"/>
                </mxCell>
                <mxCell id="348" style="edgeStyle=orthogonalEdgeStyle;rounded=0;orthogonalLoop=1;jettySize=auto;html=1;exitX=0.5;exitY=1;exitDx=0;exitDy=0;" parent="347" edge="1">
                    <mxGeometry relative="1" as="geometry"/>
                </mxCell>
                <mxCell id="349" value="status" style="rounded=0;whiteSpace=wrap;html=1;fillColor=#647687;strokeColor=#314354;fontColor=#000000;verticalAlign=middle;" parent="347" vertex="1">
                    <mxGeometry width="177.42" height="22.26" as="geometry"/>
                </mxCell>
                <mxCell id="350" value="" style="line;strokeWidth=2;direction=south;html=1;fillColor=#647687;strokeColor=#314354;fontColor=#000000;verticalAlign=middle;" parent="347" vertex="1">
                    <mxGeometry x="25.548479999999998" width="7.0968" height="22.26" as="geometry"/>
                </mxCell>
                <mxCell id="363" value="" style="group" parent="1" vertex="1" connectable="0">
                    <mxGeometry x="510" y="420" width="177.41999999999996" height="92.25774193548386" as="geometry"/>
                </mxCell>
                <mxCell id="239" value="" style="group;fillColor=#647687;strokeColor=none;fontColor=#000000;verticalAlign=middle;" parent="363" vertex="1" connectable="0">
                    <mxGeometry y="28.387096774193537" width="177.42" height="21.290322580645164" as="geometry"/>
                </mxCell>
                <mxCell id="240" value="id" style="rounded=0;whiteSpace=wrap;html=1;fillColor=#647687;strokeColor=#314354;fontColor=#000000;verticalAlign=middle;" parent="239" vertex="1">
                    <mxGeometry width="177.42" height="21.290322580645164" as="geometry"/>
                </mxCell>
                <mxCell id="241" value="" style="line;strokeWidth=2;direction=south;html=1;fillColor=#647687;strokeColor=#314354;fontColor=#000000;verticalAlign=middle;" parent="239" vertex="1">
                    <mxGeometry x="25.548479999999998" width="7.0968" height="21.290322580645164" as="geometry"/>
                </mxCell>
                <mxCell id="242" value="PK" style="text;html=1;strokeColor=none;fillColor=#647687;align=center;verticalAlign=middle;whiteSpace=wrap;rounded=0;fontColor=#000000;" parent="239" vertex="1">
                    <mxGeometry x="8.39" y="3.55" width="11.61" height="14.19" as="geometry"/>
                </mxCell>
                <mxCell id="243" value="" style="group;fillColor=#647687;strokeColor=#314354;fontColor=#000000;verticalAlign=middle;" parent="363" vertex="1" connectable="0">
                    <mxGeometry y="49.67741935483872" width="177.42" height="21.29258064516131" as="geometry"/>
                </mxCell>
                <mxCell id="244" style="edgeStyle=orthogonalEdgeStyle;rounded=0;orthogonalLoop=1;jettySize=auto;html=1;exitX=0.5;exitY=1;exitDx=0;exitDy=0;" parent="243" edge="1">
                    <mxGeometry relative="1" as="geometry"/>
                </mxCell>
                <mxCell id="245" value="products_id" style="rounded=0;whiteSpace=wrap;html=1;fillColor=#647687;strokeColor=#314354;fontColor=#000000;verticalAlign=middle;" parent="243" vertex="1">
                    <mxGeometry width="177.42" height="21.290322580645164" as="geometry"/>
                </mxCell>
                <mxCell id="246" value="" style="line;strokeWidth=2;direction=south;html=1;fillColor=#647687;strokeColor=#314354;fontColor=#000000;verticalAlign=middle;" parent="243" vertex="1">
                    <mxGeometry x="25.548479999999998" width="7.0968" height="21.290322580645164" as="geometry"/>
                </mxCell>
                <mxCell id="362" value="FK" style="text;html=1;strokeColor=none;fillColor=none;align=center;verticalAlign=middle;whiteSpace=wrap;rounded=0;fontColor=#000000;" parent="243" vertex="1">
                    <mxGeometry x="4" y="1.2925806451613084" width="20" height="20" as="geometry"/>
                </mxCell>
                <mxCell id="247" style="edgeStyle=orthogonalEdgeStyle;rounded=0;orthogonalLoop=1;jettySize=auto;html=1;exitX=0.5;exitY=1;exitDx=0;exitDy=0;fillColor=#647687;strokeColor=#314354;fontColor=#000000;verticalAlign=middle;" parent="363" source="248" target="248" edge="1">
                    <mxGeometry relative="1" as="geometry"/>
                </mxCell>
                <mxCell id="248" value="Promotions" style="shape=table;startSize=30;container=1;collapsible=1;childLayout=tableLayout;fixedRows=1;rowLines=0;fontStyle=1;align=center;resizeLast=1;fillColor=#0050ef;strokeColor=#001DBC;fontColor=#000000;verticalAlign=middle;" parent="363" vertex="1">
                    <mxGeometry width="177.42" height="28.38709677419355" as="geometry">
                        <mxRectangle x="110" y="150" width="70" height="30" as="alternateBounds"/>
                    </mxGeometry>
                </mxCell>
                <mxCell id="357" value="" style="group;fillColor=#647687;strokeColor=#314354;fontColor=#000000;verticalAlign=middle;" parent="363" vertex="1" connectable="0">
                    <mxGeometry y="70.96741935483874" width="177.42" height="21.290322580645164" as="geometry"/>
                </mxCell>
                <mxCell id="358" style="edgeStyle=orthogonalEdgeStyle;rounded=0;orthogonalLoop=1;jettySize=auto;html=1;exitX=0.5;exitY=1;exitDx=0;exitDy=0;" parent="357" edge="1">
                    <mxGeometry relative="1" as="geometry"/>
                </mxCell>
                <mxCell id="359" value="description" style="rounded=0;whiteSpace=wrap;html=1;fillColor=#647687;strokeColor=#314354;fontColor=#000000;verticalAlign=middle;" parent="357" vertex="1">
                    <mxGeometry width="177.42" height="21.290322580645164" as="geometry"/>
                </mxCell>
                <mxCell id="360" value="" style="line;strokeWidth=2;direction=south;html=1;fillColor=#647687;strokeColor=#314354;fontColor=#000000;verticalAlign=middle;" parent="357" vertex="1">
                    <mxGeometry x="25.548479999999998" width="7.0968" height="21.290322580645164" as="geometry"/>
                </mxCell>
                <mxCell id="364" value="" style="group" vertex="1" connectable="0" parent="1">
                    <mxGeometry x="550" y="20" width="177.41999999999996" height="201.26" as="geometry"/>
                </mxCell>
                <mxCell id="158" value="" style="group;fillColor=#647687;strokeColor=none;fontColor=#000000;verticalAlign=middle;" parent="364" vertex="1" connectable="0">
                    <mxGeometry y="28.387096774193537" width="177.42" height="21.290322580645164" as="geometry"/>
                </mxCell>
                <mxCell id="159" value="id" style="rounded=0;whiteSpace=wrap;html=1;fillColor=#647687;strokeColor=#314354;fontColor=#000000;verticalAlign=middle;" parent="158" vertex="1">
                    <mxGeometry width="177.42" height="21.290322580645164" as="geometry"/>
                </mxCell>
                <mxCell id="160" value="" style="line;strokeWidth=2;direction=south;html=1;fillColor=#647687;strokeColor=#314354;fontColor=#000000;verticalAlign=middle;" parent="158" vertex="1">
                    <mxGeometry x="25.548479999999998" width="7.0968" height="21.290322580645164" as="geometry"/>
                </mxCell>
                <mxCell id="161" value="PK" style="text;html=1;strokeColor=none;fillColor=#647687;align=center;verticalAlign=middle;whiteSpace=wrap;rounded=0;fontColor=#000000;" parent="158" vertex="1">
                    <mxGeometry x="8.39" y="3.55" width="11.61" height="14.19" as="geometry"/>
                </mxCell>
                <mxCell id="162" value="" style="group;fillColor=#647687;strokeColor=#314354;fontColor=#000000;verticalAlign=middle;" parent="364" vertex="1" connectable="0">
                    <mxGeometry y="49.67741935483872" width="177.42" height="21.290322580645164" as="geometry"/>
                </mxCell>
                <mxCell id="163" style="edgeStyle=orthogonalEdgeStyle;rounded=0;orthogonalLoop=1;jettySize=auto;html=1;exitX=0.5;exitY=1;exitDx=0;exitDy=0;" parent="162" edge="1">
                    <mxGeometry relative="1" as="geometry"/>
                </mxCell>
                <mxCell id="164" value="category_id" style="rounded=0;whiteSpace=wrap;html=1;fillColor=#647687;strokeColor=#314354;fontColor=#000000;verticalAlign=middle;" parent="162" vertex="1">
                    <mxGeometry width="177.42" height="21.290322580645164" as="geometry"/>
                </mxCell>
                <mxCell id="165" value="" style="line;strokeWidth=2;direction=south;html=1;fillColor=#647687;strokeColor=#314354;fontColor=#000000;verticalAlign=middle;" parent="162" vertex="1">
                    <mxGeometry x="25.548479999999998" width="7.0968" height="21.290322580645164" as="geometry"/>
                </mxCell>
                <mxCell id="166" value="FK" style="text;html=1;strokeColor=none;fillColor=none;align=center;verticalAlign=middle;whiteSpace=wrap;rounded=0;fontColor=#000000;" parent="162" vertex="1">
                    <mxGeometry x="5" width="20" height="20" as="geometry"/>
                </mxCell>
                <mxCell id="167" value="" style="group;fillColor=#647687;strokeColor=#314354;fontColor=#000000;verticalAlign=middle;" parent="364" vertex="1" connectable="0">
                    <mxGeometry y="114.25999999999999" width="177.42" height="22.26" as="geometry"/>
                </mxCell>
                <mxCell id="168" style="edgeStyle=orthogonalEdgeStyle;rounded=0;orthogonalLoop=1;jettySize=auto;html=1;exitX=0.5;exitY=1;exitDx=0;exitDy=0;" parent="167" edge="1">
                    <mxGeometry relative="1" as="geometry"/>
                </mxCell>
                <mxCell id="169" value="description" style="rounded=0;whiteSpace=wrap;html=1;fillColor=#647687;strokeColor=#314354;fontColor=#000000;verticalAlign=middle;" parent="167" vertex="1">
                    <mxGeometry width="177.42" height="22.26" as="geometry"/>
                </mxCell>
                <mxCell id="170" value="" style="line;strokeWidth=2;direction=south;html=1;fillColor=#647687;strokeColor=#314354;fontColor=#000000;verticalAlign=middle;" parent="167" vertex="1">
                    <mxGeometry x="25.548479999999998" width="7.0968" height="22.26" as="geometry"/>
                </mxCell>
                <mxCell id="171" style="edgeStyle=orthogonalEdgeStyle;rounded=0;orthogonalLoop=1;jettySize=auto;html=1;exitX=0.5;exitY=1;exitDx=0;exitDy=0;fillColor=#647687;strokeColor=#314354;fontColor=#000000;verticalAlign=middle;" parent="364" source="181" target="181" edge="1">
                    <mxGeometry relative="1" as="geometry"/>
                </mxCell>
                <mxCell id="172" value="" style="group;fillColor=#647687;strokeColor=#314354;fontColor=#000000;verticalAlign=middle;" parent="364" vertex="1" connectable="0">
                    <mxGeometry y="92" width="177.42" height="22.26" as="geometry"/>
                </mxCell>
                <mxCell id="173" style="edgeStyle=orthogonalEdgeStyle;rounded=0;orthogonalLoop=1;jettySize=auto;html=1;exitX=0.5;exitY=1;exitDx=0;exitDy=0;" parent="172" edge="1">
                    <mxGeometry relative="1" as="geometry"/>
                </mxCell>
                <mxCell id="174" value="price" style="rounded=0;whiteSpace=wrap;html=1;fillColor=#647687;strokeColor=#314354;fontColor=#000000;verticalAlign=middle;" parent="172" vertex="1">
                    <mxGeometry width="177.42" height="22.26" as="geometry"/>
                </mxCell>
                <mxCell id="175" value="" style="line;strokeWidth=2;direction=south;html=1;fillColor=#647687;strokeColor=#314354;fontColor=#000000;verticalAlign=middle;" parent="172" vertex="1">
                    <mxGeometry x="25.548479999999998" width="7.0968" height="22.26" as="geometry"/>
                </mxCell>
                <mxCell id="176" value="" style="group;fillColor=#647687;strokeColor=#314354;fontColor=#000000;verticalAlign=middle;" parent="172" vertex="1" connectable="0">
                    <mxGeometry y="-21" width="177.42" height="22.26" as="geometry"/>
                </mxCell>
                <mxCell id="177" style="edgeStyle=orthogonalEdgeStyle;rounded=0;orthogonalLoop=1;jettySize=auto;html=1;exitX=0.5;exitY=1;exitDx=0;exitDy=0;" parent="176" edge="1">
                    <mxGeometry relative="1" as="geometry"/>
                </mxCell>
                <mxCell id="178" value="name" style="rounded=0;whiteSpace=wrap;html=1;fillColor=#647687;strokeColor=#314354;fontColor=#000000;verticalAlign=middle;" parent="176" vertex="1">
                    <mxGeometry width="177.42" height="22.26" as="geometry"/>
                </mxCell>
                <mxCell id="179" value="" style="line;strokeWidth=2;direction=south;html=1;fillColor=#647687;strokeColor=#314354;fontColor=#000000;verticalAlign=middle;" parent="176" vertex="1">
                    <mxGeometry x="25.548479999999998" width="7.0968" height="22.26" as="geometry"/>
                </mxCell>
                <mxCell id="182" value="" style="group;fillColor=#647687;strokeColor=#314354;fontColor=#000000;verticalAlign=middle;" parent="364" vertex="1" connectable="0">
                    <mxGeometry y="135" width="177.42" height="22.26" as="geometry"/>
                </mxCell>
                <mxCell id="181" value="Products" style="shape=table;startSize=30;container=1;collapsible=1;childLayout=tableLayout;fixedRows=1;rowLines=0;fontStyle=1;align=center;resizeLast=1;fillColor=#0050ef;strokeColor=#001DBC;fontColor=#000000;verticalAlign=middle;" parent="364" vertex="1">
                    <mxGeometry width="177.42" height="28.38709677419355" as="geometry">
                        <mxRectangle x="110" y="150" width="70" height="30" as="alternateBounds"/>
                    </mxGeometry>
                </mxCell>
                <mxCell id="251" value="" style="group;fillColor=#647687;strokeColor=#314354;fontColor=#000000;verticalAlign=middle;" parent="364" vertex="1" connectable="0">
                    <mxGeometry y="157" width="177.42" height="22.26" as="geometry"/>
                </mxCell>
                <mxCell id="252" style="edgeStyle=orthogonalEdgeStyle;rounded=0;orthogonalLoop=1;jettySize=auto;html=1;exitX=0.5;exitY=1;exitDx=0;exitDy=0;" parent="251" edge="1">
                    <mxGeometry relative="1" as="geometry"/>
                </mxCell>
                <mxCell id="253" value="stock" style="rounded=0;whiteSpace=wrap;html=1;fillColor=#647687;strokeColor=#314354;fontColor=#000000;verticalAlign=middle;" parent="251" vertex="1">
                    <mxGeometry width="177.42" height="22.26" as="geometry"/>
                </mxCell>
                <mxCell id="254" value="" style="line;strokeWidth=2;direction=south;html=1;fillColor=#647687;strokeColor=#314354;fontColor=#000000;verticalAlign=middle;" parent="251" vertex="1">
                    <mxGeometry x="25.548479999999998" width="7.0968" height="22.26" as="geometry"/>
                </mxCell>
                <mxCell id="184" value="image" style="rounded=0;whiteSpace=wrap;html=1;fillColor=#647687;strokeColor=#314354;fontColor=#000000;verticalAlign=middle;" parent="364" vertex="1">
                    <mxGeometry y="135" width="177.42" height="22.26" as="geometry"/>
                </mxCell>
                <mxCell id="185" value="" style="line;strokeWidth=2;direction=south;html=1;fillColor=#647687;strokeColor=#314354;fontColor=#000000;verticalAlign=middle;" parent="364" vertex="1">
                    <mxGeometry x="25.54848000000004" y="135" width="7.0968" height="22.26" as="geometry"/>
                </mxCell>
                <mxCell id="339" value="" style="group;fillColor=#647687;strokeColor=#314354;fontColor=#000000;verticalAlign=middle;" parent="364" vertex="1" connectable="0">
                    <mxGeometry y="179" width="177.42" height="22.26" as="geometry"/>
                </mxCell>
                <mxCell id="340" style="edgeStyle=orthogonalEdgeStyle;rounded=0;orthogonalLoop=1;jettySize=auto;html=1;exitX=0.5;exitY=1;exitDx=0;exitDy=0;" parent="339" edge="1">
                    <mxGeometry relative="1" as="geometry"/>
                </mxCell>
                <mxCell id="341" value="discount" style="rounded=0;whiteSpace=wrap;html=1;fillColor=#647687;strokeColor=#314354;fontColor=#000000;verticalAlign=middle;" parent="339" vertex="1">
                    <mxGeometry width="177.42" height="22.26" as="geometry"/>
                </mxCell>
                <mxCell id="342" value="" style="line;strokeWidth=2;direction=south;html=1;fillColor=#647687;strokeColor=#314354;fontColor=#000000;verticalAlign=middle;" parent="339" vertex="1">
                    <mxGeometry x="25.548479999999998" width="7.0968" height="22.26" as="geometry"/>
                </mxCell>
            </root>
        </mxGraphModel>
    </diagram>
</mxfile>